<svg width="608" height="251" viewBox="0 0 608 251" fill="none" xmlns="http://www.w3.org/2000/svg">
<path d="M109.925 0.00168785C109.584 0.0148912 109.319 0.110062 109.141 0.279485L78.0978 37.1939L71.7651 58.9928C67.4615 58.8506 63.0175 58.7967 58.4632 58.7967C26.1986 58.7967 0 62.2188 0 66.4607C0 76.5843 116.91 76.5843 116.91 66.4607C116.91 63.3232 102.914 60.6727 82.7331 59.4177L87.7438 41.4752L116.78 6.50542L116.828 6.4564C117.48 5.7787 116.208 3.7447 114.135 1.96261C112.581 0.619771 110.947 -0.0379228 109.925 0.00168785ZM69.3822 67.5719L69.268 67.915C69.2178 67.9569 69.219 68.0119 69.219 68.0621C69.219 68.6896 71.75 69.206 74.8336 69.206C77.9171 69.206 80.4644 68.6896 80.4644 68.0621L80.5624 67.6699C81.373 67.9628 81.8191 68.2982 81.8191 68.6831C81.8191 69.6954 78.6871 70.5224 74.7846 70.4806C70.9907 70.4806 67.848 69.7118 67.848 68.6994C67.848 68.2643 68.4714 67.8647 69.3822 67.5719ZM116.257 70.4479C100.789 78.7057 16.2936 78.7616 0.767105 70.5623L7.63841 131.073C10.6217 121.426 18.1666 108.403 27.8769 104.454C31.0608 103.148 34.2936 103.155 37.327 104.895C39.9593 106.342 42.1849 109.377 42.4356 110.581C43.0456 113.719 41.4288 114.961 40.1669 114.961C38.646 114.961 37.4836 112.753 36.7231 111.448C34.6507 107.925 31.5133 107.774 28.1707 110.091C24.6777 112.501 21.643 116.553 19.5204 120.076C16.9382 124.317 14.7608 128.994 13.4488 133.671C12.6884 136.374 11.9935 140.703 13.155 143.264C13.6648 144.326 14.4158 144.996 15.6359 144.996C18.1679 144.996 21.8455 141.816 23.617 140.126C25.89 137.959 28.822 134.58 29.9334 132.413L32.5775 124.945C33.8895 121.666 37.5718 122.243 37.5718 124.945C37.5718 129.865 35.7124 131.505 32.5285 141.678C29.5954 151.083 28.6767 154.13 28.6767 154.13C28.3257 155.477 26.9564 157.742 25.494 157.742C24.884 157.742 24.439 157.538 24.1883 157.153C23.6785 156.476 23.7301 154.616 23.7803 154.13C23.8805 152.591 26.9591 143.42 27.4689 141.973C26.4578 143.035 25.3988 144.105 24.2373 145.159C21.5047 147.619 17.111 150.846 13.3672 150.846C11.6458 150.846 10.544 150.405 9.48273 149.686L13.3183 188.071C14.3294 190.48 33.1474 196.323 57.9246 196.323C82.7519 196.323 101.554 190.438 102.515 188.071L108.031 142.463C105.148 144.973 101.818 148.064 98.1242 149.604C95.3916 150.717 89.327 151.427 89.327 146.842C89.327 144.332 93.9322 139.712 96.6063 136.482C97.3166 135.662 98.9729 133.639 98.9729 132.577C98.9729 131.179 95.9476 131.502 93.0645 133.769C91.4434 135.075 89.9196 136.819 88.6578 138.459C86.4851 141.354 85.3263 143.852 84.3653 145.927C81.2315 152.771 82.2947 150.073 79.7626 156.532C77.2306 162.95 77.6446 162.219 77.1349 163.281C76.6836 164.202 76.0219 164.978 75.111 165.455C74.15 165.94 72.8369 165.885 72.0263 165.308C71.575 165.015 71.3571 164.388 71.3571 163.526C71.3571 163.091 71.42 162.654 71.5203 162.219C72.2808 159.274 75.4663 153.496 79.1098 145.682C79.9203 143.9 79.6101 144.429 79.5015 144.571C76.3678 147.466 73.9854 148.867 72.2221 149.637C69.289 150.892 65.6459 150.889 64.8938 147.659C64.8437 147.467 64.846 147.263 64.7959 147.071C58.8293 151.505 52.5119 152.712 54.693 143.166C52.3698 147.123 48.3134 150.356 43.3496 150.356C41.2772 150.356 39.7602 149.686 39.0081 147.904C37.8466 145.252 39.6628 140.709 41.3257 136.417C42.1865 134.25 43.3617 131.643 44.9328 128.606C45.7434 126.966 47.0469 125.997 48.7683 126.432C49.0691 126.533 49.3337 126.633 49.5844 126.775C50.8964 127.646 50.3914 128.935 49.7313 130.24C47.8093 133.854 46.1421 136.508 45.0307 140.273C44.5795 141.863 44.0099 144.62 45.7815 144.62C46.9932 144.62 48.1545 144.229 49.2743 143.46C51.5974 141.82 53.4682 139.365 54.8888 136.956C55.9 135.224 57.1187 132.957 57.7287 131.024C57.9794 130.204 58.2918 129.432 58.6427 128.704C59.2026 127.499 59.9502 126.253 61.2705 126.253C61.9307 126.253 62.4768 126.495 62.8863 126.972C63.747 128.034 63.5581 129.126 63.0985 130.289C62.0873 132.991 60.7255 135.408 59.6057 138.345C58.9455 140.035 58.2347 142.2 58.2347 143.983C58.2347 145.622 60.1075 145.232 61.6785 144.554C62.8902 144.027 64.1028 143.217 65.1223 142.397C65.7324 140.038 65.5707 140.56 78.4732 109.503C79.1334 107.913 80.3463 107.232 81.558 107.232C82.168 107.232 82.664 107.436 83.1738 107.771C84.0345 108.398 84.047 109.733 83.6961 110.745C83.3451 111.665 83.3832 111.376 81.4111 115.811C78.7788 121.642 77.0671 125.849 74.7356 131.204C73.7746 133.421 70.8466 140.316 70.3452 141.956C70.0443 143.019 69.6812 144.751 70.8511 144.751C73.5837 144.751 80.6152 138.43 82.5373 136.547C82.6375 136.405 82.7937 136.354 82.9943 136.253C83.2951 135.333 83.5923 134.476 83.843 133.606C84.5533 131.774 85.2157 129.637 86.536 128.148C86.9371 127.663 87.3893 127.38 87.8907 127.38C89.3029 127.38 90.0125 127.953 90.0125 129.308C90.0125 129.835 89.6664 131.772 89.4575 132.299C90.1678 131.579 90.9156 130.861 91.7262 130.142C99.314 123.44 104.718 126.86 104.718 130.24C104.718 133.804 100.222 138.762 97.7488 141.515C96.9382 142.435 95.2691 144.118 95.219 144.604C95.219 145.231 95.6687 145.486 96.3288 145.486C97.34 145.486 99.5659 143.792 100.377 143.215C102.909 141.332 106.334 138.441 108.766 136.417L116.257 70.4479ZM16.1255 192.695L23.666 204.951L26.6039 243.238C26.6039 247.53 40.9133 251 58.5122 251C76.1111 251 90.4205 247.53 90.4205 243.238L92.7544 204.559L99.8706 192.695C79.8399 200.752 36.9668 201.037 16.1255 192.695Z" fill="#FF0000"/>
<path d="M318.438 133.312C319.375 134.719 319 136.594 317.688 137.531C317.125 137.906 316.562 138.094 316 138.094C314.969 138.094 314.031 137.625 313.469 136.781L301 118.688L295 124.781V135C295 136.688 293.594 138 292 138C290.312 138 289 136.688 289 135V99C289 97.4062 290.312 96.0938 292 96.0938C293.594 96.0938 295 97.4062 295 99.0938V116.25L313.844 96.9375C314.969 95.7188 316.844 95.7188 318.062 96.9375C319.188 98.0625 319.281 99.9375 318.062 101.156L305.219 114.281L318.438 133.312ZM355 99.0938V120.188C355 129.938 346.844 138.094 337 138.094C327.062 138.094 319 130.031 319 120.188V99.0938C319 97.4062 320.312 96.0938 322 96.0938C323.594 96.0938 325 97.4062 325 99.0938V120.188C325 126.75 330.344 132.094 337 132.094C343.562 132.094 349 126.75 349 120.188V99.0938C349 97.4062 350.312 96.0938 352 96.0938C353.594 96.0938 355 97.4062 355 99.0938ZM391 135C391 136.688 389.594 138 388 138H358C356.781 138 355.75 137.344 355.281 136.312C354.719 135.281 354.906 134.062 355.656 133.125L381.531 102.094H358C356.312 102.094 355 100.688 355 99.0938C355 97.4062 356.312 96.0938 358 96.0938H388C389.125 96.0938 390.156 96.75 390.625 97.7812C391.188 98.8125 391 100.031 390.25 100.969L364.375 132H388C389.594 132 391 133.406 391 135ZM427 99.0938V135.094C427 136.312 426.156 137.438 424.938 137.906C424.656 138 424.281 138 424 138C423.062 138 422.219 137.625 421.656 136.969L397 107.344V135C397 136.688 395.594 138 394 138C392.312 138 391 136.688 391 135V99C391 97.7812 391.75 96.6562 392.969 96.1875C394.094 95.8125 395.406 96.1875 396.25 97.125L421 126.75V99C421 97.4062 422.312 96 424 96C425.594 96 427 97.4062 427 99.0938ZM457 135C457 136.688 455.594 138 454 138H430C428.312 138 427 136.688 427 135V99C427 97.4062 428.312 96.0938 430 96.0938H454C455.594 96.0938 457 97.4062 457 99.0938C457 100.688 455.594 102.094 454 102.094H433V114.094H448C449.594 114.094 451 115.406 451 117C451 118.688 449.594 120.094 448 120.094H433V132.094H454C455.594 132 457 133.406 457 135ZM493 99.0938C493 100.688 491.594 102.094 490 102.094H478V135.094C478 136.688 476.594 138 475 138C473.312 138 472 136.688 472 135.094V102.094H460C458.312 102.094 457 100.688 457 99.0938C457 97.4062 458.312 96.0938 460 96.0938H490C491.594 96.0938 493 97.4062 493 99.0938ZM525.719 128.625C525.156 132 523.375 134.719 520.469 136.312C518.125 137.625 515.406 138.094 512.594 138.094C506.781 138.094 500.781 135.938 497.781 134.719C496.281 134.156 495.531 132.375 496.188 130.875C496.844 129.281 498.531 128.531 500.125 129.188C507.344 132.188 514.188 132.844 517.562 131.062C518.875 130.312 519.531 129.188 519.812 127.594C520.562 123.562 518.125 122.25 510.156 119.906C503.5 118.031 494.406 115.406 496.188 105.562C496.656 102.562 498.344 99.9375 500.969 98.3438C505.188 95.5312 511.75 95.3438 520.281 97.5938C521.875 98.0625 522.812 99.6562 522.438 101.25C521.969 102.844 520.375 103.781 518.781 103.406C510.25 101.156 506.125 102.094 504.156 103.312C503.031 104.156 502.281 105.188 502.094 106.5C501.344 110.531 503.781 111.844 511.75 114.188C518.406 116.062 527.5 118.688 525.719 128.625ZM550 96.0938C561.531 96.0938 571 105.469 571 117.094C571 128.625 561.531 138.094 550 138.094C538.375 138.094 529 128.625 529 117.094C529 105.469 538.375 96.0938 550 96.0938ZM550 132C558.25 132 565 125.25 565 117C565 108.844 558.25 102.094 550 102.094C541.656 102.094 535 108.75 535 117C535 125.344 541.656 132 550 132ZM606.719 100.219L591.719 136.219C591.25 137.344 590.125 138 589 138C587.781 138 586.656 137.344 586.188 136.219L571.188 100.219C570.531 98.7188 571.281 96.9375 572.781 96.2812C574.375 95.625 576.062 96.375 576.719 97.875L589 127.219L601.188 97.875C601.844 96.375 603.531 95.625 605.125 96.2812C606.625 96.9375 607.375 98.7188 606.719 100.219ZM361 179.75C363.062 179.75 363.906 181.625 363.906 182.75C363.906 184.906 357.625 191.094 348.438 191.094C335.594 191.094 327.906 180.031 327.906 170.094C327.906 160.344 335.406 149.094 348.438 149.094C357.812 149.094 363.906 155.375 363.906 157.438C363.906 158.562 362.969 160.438 360.906 160.438C357.906 160.438 356.594 155.094 348.438 155.094C339.25 155.094 333.906 163.062 333.906 170.094C333.906 177.031 339.156 185.094 348.438 185.094C356.688 185 358 179.75 361 179.75ZM385.375 175.062L393.438 186.312C394.375 187.625 394 189.5 392.688 190.531C392.125 190.906 391.562 191.094 391 191.094C390.062 191.094 389.125 190.625 388.469 189.781L378.719 176H370V188C370 189.688 368.594 191 367 191C365.312 191 364 189.688 364 188V152C364 150.406 365.312 149 367 149H380.5C387.906 149 394 155.094 394 162.5C394 168.219 390.438 173.094 385.375 175.062ZM370 155.094V170H380.5C384.625 170 388 166.719 388 162.594C388 158.375 384.625 155.094 380.5 155.094H370ZM424 188C424 189.688 422.594 191 421 191H397C395.312 191 394 189.688 394 188V152C394 150.406 395.312 149.094 397 149.094H421C422.594 149.094 424 150.406 424 152.094C424 153.688 422.594 155.094 421 155.094H400V167.094H415C416.594 167.094 418 168.406 418 170C418 171.688 416.594 173.094 415 173.094H400V185.094H421C422.594 185 424 186.406 424 188ZM459.719 186.875C460.375 188.375 459.625 190.156 458.125 190.812C457.75 191 457.375 191.094 457 191.094C455.781 191.094 454.656 190.344 454.188 189.219L451.188 182.094H432.719L429.719 189.219C429.062 190.719 427.375 191.469 425.781 190.812C424.281 190.156 423.531 188.469 424.188 186.875L439.188 150.875C439.656 149.75 440.781 149.094 442 149.094C443.125 149.094 444.25 149.75 444.719 150.875L459.719 186.875ZM435.156 176H448.75L442 159.875L435.156 176ZM496 152.094C496 153.688 494.594 155.094 493 155.094H481V188.094C481 189.688 479.594 191 478 191C476.312 191 475 189.688 475 188.094V155.094H463C461.312 155.094 460 153.688 460 152.094C460 150.406 461.312 149.094 463 149.094H493C494.594 149.094 496 150.406 496 152.094ZM517 149.094C528.531 149.094 538 158.469 538 170.094C538 181.625 528.531 191.094 517 191.094C505.375 191.094 496 181.625 496 170.094C496 158.469 505.375 149.094 517 149.094ZM517 185C525.25 185 532 178.25 532 170C532 161.844 525.25 155.094 517 155.094C508.656 155.094 502 161.75 502 170C502 178.344 508.656 185 517 185ZM559.375 175.062L567.438 186.312C568.375 187.625 568 189.5 566.688 190.531C566.125 190.906 565.562 191.094 565 191.094C564.062 191.094 563.125 190.625 562.469 189.781L552.719 176H544V188C544 189.688 542.594 191 541 191C539.312 191 538 189.688 538 188V152C538 150.406 539.312 149 541 149H554.5C561.906 149 568 155.094 568 162.5C568 168.219 564.438 173.094 559.375 175.062ZM544 155.094V170H554.5C558.625 170 562 166.719 562 162.594C562 158.375 558.625 155.094 554.5 155.094H544Z" fill="white"/>
<rect x="171" y="113.471" width="2.07969" height="38.3959" rx="1.03984" transform="rotate(-45 171 113.471)" fill="white"/>
<rect x="206.436" y="148.699" width="2.07969" height="38.3155" rx="1.03984" transform="rotate(-45 206.436 148.699)" fill="white"/>
<rect width="2.07969" height="38.3476" rx="1.03984" transform="matrix(-0.707107 -0.707107 -0.707107 0.707107 235 113.471)" fill="white"/>
<rect width="2.07969" height="38.2742" rx="1.03984" transform="matrix(-0.707107 -0.707107 -0.707107 0.707107 199.534 148.728)" fill="white"/>
</svg>
